<svg
  id="icon"
  width="24"
  height="24"
  viewBox="0 0 24 24"
  xmlns="http://www.w3.org/2000/svg"
>
  <path
    d="M7.73926 19.0147H10.2393M13.9893 13.4913V19.5147C13.9893 20.0451 13.7785 20.5537 13.4034 20.9288C13.0284 21.3038 12.5197 21.5147 11.9893 21.5147H5.98926C5.45882 21.5147 4.95015 21.3038 4.57507 20.9288C4.2 20.5537 3.98926 20.0451 3.98926 19.5147V7.51471C3.98926 6.98428 4.2 6.47572 4.57507 6.10065C4.95015 5.72557 5.45882 5.51471 5.98926 5.51471H9.58923M9.62222 10.5706C9.00767 9.40466 8.83124 8.05757 9.1249 6.77273C9.41856 5.4879 10.1629 4.35084 11.2229 3.56765C12.283 2.78447 13.5886 2.40646 14.903 2.5032C16.2174 2.59994 17.4537 3.16506 18.3876 4.095C19.3215 5.02493 19.8913 6.25855 19.9937 7.57254C20.0961 8.88652 19.7243 10.1937 18.9457 11.2571C18.1671 12.3205 17.0332 13.0692 15.7497 13.3684C14.4661 13.6676 13.1178 13.4975 11.9492 12.888L9.0082 13.513L9.62222 10.5706Z"
    stroke="currentColor"
    stroke-width="1.5"
    stroke-linecap="round"
    stroke-linejoin="round"
    fill="none"
  />
</svg>
