<svg
  id="icon"
  width="24"
  height="24"
  viewBox="0 0 24 24"
  fill="none"
  xmlns="http://www.w3.org/2000/svg"
>
  <path
    d="M3.11774 12.471C3.04045 12.3273 3 12.1666 3 12.0035C3 11.8403 3.04045 11.6797 3.11774 11.536C5.01074 8.03601 8.50573 5.00299 11.9997 5.00299C15.4937 5.00299 18.9897 8.03601 20.8827 11.536C20.96 11.6797 21.0005 11.8403 21.0005 12.0035C21.0005 12.1666 20.96 12.3273 20.8827 12.471C18.9897 15.971 15.4947 19.003 11.9997 19.003C8.50473 19.003 5.01074 15.971 3.11774 12.471Z"
    stroke="currentColor"
    stroke-width="1.5"
    stroke-linecap="round"
    stroke-linejoin="round"
    vector-effect="non-scaling-stroke"
  />
  <path
    d="M11.9997 15.002C13.6566 15.002 14.9997 13.6589 14.9997 12.002C14.9997 10.3452 13.6566 9.00201 11.9997 9.00201C10.3429 9.00201 8.99973 10.3452 8.99973 12.002C8.99973 13.6589 10.3429 15.002 11.9997 15.002Z"
    stroke="currentColor"
    stroke-width="1.5"
    stroke-linecap="round"
    stroke-linejoin="round"
    vector-effect="non-scaling-stroke"
  />
</svg>
