<svg
  id="icon"
  width="24"
  height="24"
  viewBox="0 0 24 24"
  xmlns="http://www.w3.org/2000/svg"
  fill="none"
>
  <path
    d="M9.50119 18.508C10.2969 18.8257 11.1445 18.9935 12.0012 19.003C15.4962 19.003 18.9912 15.972 20.8842 12.472M19.0812 8.92395C19.771 9.72918 20.3743 10.6046 20.8812 11.5359C20.9585 11.6797 20.9989 11.8403 20.9989 12.0035C20.9989 12.1666 20.9585 12.3272 20.8812 12.4709M5.00119 19.003L19.0012 5.00299M9.7742 14.231C9.18343 13.6402 8.85153 12.839 8.85153 12.0035C8.85153 11.168 9.18343 10.3668 9.7742 9.776C10.365 9.18523 11.1662 8.85333 12.0017 8.85333C12.8372 8.85333 13.6384 9.18523 14.2292 9.776M17.0462 6.95898C15.6254 5.76994 13.8522 5.08247 12.0012 5.00299C8.50719 5.00299 5.0122 8.03595 3.1192 11.5359C3.04191 11.6797 3.00146 11.8403 3.00146 12.0035C3.00146 12.1666 3.04191 12.3272 3.1192 12.4709C4.07261 14.2424 5.37878 15.7998 6.95718 17.047"
    stroke="currentColor"
    stroke-width="1.5"
    stroke-linecap="round"
    stroke-linejoin="round"
    vector-effect="non-scaling-stroke"
  />
</svg>
