<svg
  width="40"
  height="160"
  viewBox="0 0 40 160"
  fill="none"
  xmlns="http://www.w3.org/2000/svg"
>
  <path
    d="M4.11264 72.5891C4.24488 72.7115 4.38344 72.8264 4.52764 72.9334C4.67199 73.0296 4.82414 73.1125 4.98252 73.1812C5.14537 73.2528 5.31614 73.3037 5.4909 73.3327C5.6622 73.3714 5.83717 73.3898 6.0125 73.3878C6.7192 73.3881 7.39728 73.0998 7.89893 72.5856C8.15732 72.3311 8.36389 72.0258 8.50638 71.6876C8.64887 71.3495 8.72449 70.9853 8.72873 70.6165C8.73297 70.2477 8.66577 69.8819 8.53109 69.5403C8.39642 69.1987 8.19697 68.8884 7.9445 68.6276C7.69203 68.3668 7.39156 68.1608 7.06089 68.0217C6.73021 67.8826 6.37603 67.8132 6.01901 67.8176C5.66199 67.8219 5.30939 67.9 4.98201 68.0472C4.65463 68.1944 4.35904 68.4078 4.11264 68.6747C3.63438 69.2067 3.36859 69.9058 3.36859 70.6318C3.36859 71.3578 3.63438 72.057 4.11264 72.5891ZM23.111 88.6203L16.2782 80.1356C15.8247 79.5718 15.173 79.2171 14.4663 79.1497C13.7597 79.0822 13.0561 79.3074 12.5102 79.7758C11.9644 80.2442 11.621 80.9175 11.5557 81.6474C11.4904 82.3773 11.7085 83.104 12.162 83.6679L22.1994 96.1393L6.00914 96.1393C5.29953 96.1393 4.61899 96.4305 4.11722 96.9488C3.61545 97.4671 3.3335 98.1701 3.3335 98.903C3.3335 99.636 3.61545 100.339 4.11722 100.857C4.61899 101.376 5.29953 101.667 6.00914 101.667L33.3767 101.667C34.0863 101.667 34.7669 101.376 35.2686 100.857C35.7704 100.339 36.0524 99.636 36.0524 98.903C36.0524 98.1701 35.7704 97.4671 35.2686 96.9488C34.7669 96.4305 34.0863 96.1393 33.3767 96.1393L29.1571 96.1393L26.5389 92.8876L35.2682 83.8607C35.7582 83.3396 36.03 82.6402 36.0247 81.9138C36.0194 81.1874 35.7376 80.4923 35.24 79.9788C34.7425 79.4654 34.0693 79.1748 33.366 79.17C32.6628 79.1652 31.9859 79.4466 31.4818 79.9532L23.111 88.6203ZM11.9453 41.3253C11.8045 41.6582 11.7289 42.0166 11.7228 42.3798C11.7167 42.7431 11.7802 43.1039 11.9097 43.4416C12.0392 43.7794 12.2322 44.0874 12.4774 44.3478C12.7226 44.6082 13.0152 44.816 13.3385 44.9591L26.609 50.8841L13.1702 56.7954C12.5277 57.0898 12.0232 57.6334 11.7656 58.3089C11.5079 58.9843 11.5177 59.7373 11.793 60.4052C12.0683 61.0732 12.587 61.6024 13.2369 61.8788C13.8868 62.1551 14.6159 62.1562 15.2666 61.882L34.4433 53.4473C34.9247 53.2352 35.3354 52.882 35.6245 52.4313C35.9136 51.9806 36.0685 51.4523 36.0698 50.9116C36.0699 50.3723 35.9172 49.8447 35.6305 49.3939C35.3439 48.943 34.9358 48.5886 34.4566 48.3743L15.4583 39.8948C14.8084 39.6046 14.0736 39.5921 13.4149 39.8602C12.7562 40.1283 12.2271 40.6552 11.9436 41.3253H11.9453ZM11.5454 70.6318C11.5458 71.3647 11.8279 72.0675 12.3298 72.5856C12.8317 73.1037 13.5122 73.3947 14.2217 73.3947L33.3867 73.3947C34.0963 73.3947 34.7768 73.1035 35.2786 72.5852C35.7804 72.0669 36.0623 71.364 36.0623 70.631C36.0623 69.898 35.7804 69.1951 35.2786 68.6768C34.7768 68.1585 34.0963 67.8674 33.3867 67.8674L14.2217 67.8674C13.8701 67.8671 13.5219 67.9384 13.197 68.0773C12.8721 68.2161 12.5769 68.4197 12.3282 68.6765C12.0795 68.9332 11.8822 69.238 11.7476 69.5735C11.613 69.909 11.5436 70.2686 11.5436 70.6318H11.5454ZM21.5095 0.0172174L6.01077 0.0172174C5.31272 0.0352137 4.64912 0.334265 4.16157 0.850594C3.67402 1.36692 3.40114 2.05959 3.40114 2.78085C3.40114 3.50211 3.67402 4.19487 4.16157 4.7112C4.64912 5.22753 5.31272 5.52658 6.01077 5.54458L12.4635 5.54458C11.4798 7.25372 10.9524 9.20165 10.9349 11.1899C10.9173 13.1782 11.4104 15.1358 12.3639 16.8631C13.3173 18.5905 14.697 20.0259 16.3624 21.0231C18.0278 22.0203 19.9194 22.5436 21.8444 22.5398L25.7557 22.5398C27.7232 22.5424 29.6546 21.9948 31.345 20.955C33.0355 19.9152 34.4218 18.4221 35.357 16.6341C36.2922 14.8461 36.7413 12.8301 36.6568 10.7997C36.5722 8.76937 35.9571 6.80051 34.8766 5.10215C35.3678 4.78282 35.7445 4.30673 35.9499 3.74608C36.1553 3.18543 36.1781 2.57089 36.0146 1.9957C35.8512 1.42051 35.5105 0.916102 35.0443 0.559038C34.5782 0.201975 34.0121 0.0117291 33.4317 0.0172174L26.0907 0.0172174C25.979 0.0172174 25.869 -1.50469e-05 25.7573 -1.50469e-05L21.8461 -1.50469e-05C21.7344 -1.50469e-05 21.6194 0.0137747 21.5077 0.0172174H21.5095ZM25.9241 5.54458C27.3773 5.5962 28.7529 6.23455 29.7554 7.32249C30.7579 8.41043 31.3072 9.86109 31.2854 11.3629C31.2636 12.8647 30.6723 14.2977 29.6386 15.3541C28.605 16.4105 27.2114 17.0059 25.7573 17.0124L21.8461 17.0124C20.392 17.0059 18.9984 16.4105 17.9648 15.3541C16.9311 14.2977 16.3399 12.8647 16.3181 11.3629C16.2963 9.86109 16.8456 8.41043 17.8481 7.32249C18.8506 6.23455 20.2262 5.5962 21.6794 5.54458L25.9241 5.54458ZM8.69058 31.0675C8.6834 30.3324 8.40019 29.6289 7.90066 29.1052C7.39874 28.5917 6.72059 28.3039 6.01413 28.3047C5.8388 28.3028 5.66384 28.3212 5.49252 28.3598C5.31777 28.3888 5.1471 28.4397 4.98425 28.5113C4.82587 28.58 4.67361 28.6629 4.52927 28.7591C4.38502 28.866 4.24645 28.981 4.11427 29.1034C3.63697 29.6353 3.37184 30.3337 3.37184 31.0589C3.37184 31.7841 3.63697 32.4826 4.11427 33.0145C4.24299 33.141 4.38184 33.2561 4.52927 33.3586C4.67353 33.4555 4.82579 33.5391 4.98425 33.6083C5.14875 33.6802 5.31875 33.7378 5.49252 33.7805C5.66475 33.8128 5.83913 33.8312 6.01413 33.8355C6.72219 33.8306 7.39991 33.538 7.90076 33.021C8.4016 32.504 8.68535 31.8041 8.69058 31.0727V31.0675ZM11.547 31.0675C11.547 31.8007 11.829 32.5039 12.3309 33.0223C12.8328 33.5408 13.5136 33.8321 14.2234 33.8321L33.3884 33.8321C34.0865 33.8141 34.7501 33.515 35.2376 32.9987C35.7252 32.4824 35.998 31.7897 35.998 31.0684C35.998 30.3472 35.7252 29.6544 35.2376 29.1381C34.7501 28.6218 34.0865 28.3227 33.3884 28.3047L14.2234 28.3047C13.5142 28.3038 12.8336 28.5937 12.3311 29.1108C11.8287 29.6278 11.5454 30.3297 11.5436 31.0623L11.547 31.0675Z"
    fill="#565959"
  />
  <path
    d="M27.0254 118.961C27.3554 120.031 27.4004 122.325 21.8685 125.642C18.7522 127.685 15.6378 129.668 13.1341 132.491C10.9367 134.887 9.43822 137.856 8.8059 141.066C8.60925 142.167 8.5209 143.286 8.54215 144.405C8.69966 153.632 16.6834 161.263 25.931 159.825C38.0399 157.94 39.4705 144.735 38.133 136.782C37.8346 135.056 37.3174 133.377 36.5943 131.786C34.3487 126.863 31.0851 122.489 27.0254 118.961Z"
    fill="url(#paint0_linear_2399_7359)"
  />
  <path
    d="M36.752 132.158C34.4871 127.037 31.1249 122.493 26.9106 118.859C26.845 118.799 26.7812 118.743 26.7162 118.684C27.5825 121.3 22.3806 121.788 18.9393 119.982C15.4087 118.129 11.2555 115.926 7.15546 117.067C3.93919 117.811 -2.8815 123.793 1.33854 134.168C4.26043 140.894 11.4767 145.653 18.9093 146.478C22.1806 146.843 26.78 146.356 30.2607 144.248C34.8938 141.427 37.4176 136.816 36.752 132.158Z"
    fill="url(#paint1_linear_2399_7359)"
  />
  <path
    d="M36.7523 132.17V132.161C34.5089 127.086 31.1867 122.579 27.0241 118.962C27.3541 120.031 27.3991 122.325 21.8666 125.643C18.7509 127.686 15.6359 129.668 13.1322 132.491C10.9348 134.887 9.43635 137.856 8.804 141.067C8.70963 141.589 8.64336 142.115 8.59961 142.644C11.6881 144.733 15.2212 146.046 18.9078 146.477C22.1791 146.842 26.7785 146.354 30.2591 144.246C34.8886 141.431 37.4098 136.826 36.7523 132.17Z"
    fill="url(#paint2_linear_2399_7359)"
  />
  <path
    d="M26.146 114.59C26.0999 114.63 26.0559 114.672 26.0141 114.717C25.6761 115.093 25.4594 115.564 25.3931 116.069C25.3269 116.573 25.4142 117.086 25.6435 117.538C25.9031 117.956 26.2381 118.32 26.631 118.611C26.7241 118.692 26.8185 118.772 26.9091 118.856C33.4454 124.603 37.5867 131.723 39.1448 139.931C39.2379 140.424 40.0054 140.431 39.9998 139.699C39.8171 136.496 39.2264 133.331 38.2423 130.282C37.3691 127.541 36.2411 124.891 34.8735 122.368C33.8178 120.382 32.5973 118.491 31.2254 116.716C30.6189 115.879 29.9041 115.128 29.1004 114.485C28.6614 114.18 28.1378 114.025 27.6061 114.044C27.0744 114.063 26.5627 114.254 26.146 114.59Z"
    fill="url(#paint3_linear_2399_7359)"
  />
  <defs>
    <linearGradient
      id="paint0_linear_2399_7359"
      x1="38.5413"
      y1="139.481"
      x2="8.53906"
      y2="139.481"
      gradientUnits="userSpaceOnUse"
    >
      <stop stop-color="#7D66E6" />
      <stop offset="1" stop-color="#F047B8" />
    </linearGradient>
    <linearGradient
      id="paint1_linear_2399_7359"
      x1="36.8574"
      y1="131.671"
      x2="0"
      y2="131.671"
      gradientUnits="userSpaceOnUse"
    >
      <stop stop-color="#FFC234" />
      <stop offset="1" stop-color="#F5914A" />
    </linearGradient>
    <linearGradient
      id="paint2_linear_2399_7359"
      x1="36.8556"
      y1="132.775"
      x2="8.59961"
      y2="132.775"
      gradientUnits="userSpaceOnUse"
    >
      <stop stop-color="#F5914A" />
      <stop offset="1" stop-color="#F047B8" />
    </linearGradient>
    <linearGradient
      id="paint3_linear_2399_7359"
      x1="39.9998"
      y1="127.16"
      x2="25.3716"
      y2="127.16"
      gradientUnits="userSpaceOnUse"
    >
      <stop stop-color="#4FE682" />
      <stop offset="1" stop-color="#38D6E6" />
    </linearGradient>
  </defs>
</svg>
